<svg width="120" height="120" viewBox="0 0 120 120" xmlns="http://www.w3.org/2000/svg" role="img" aria-label="入庫カルテ アイコン">
  <title>入庫カルテ</title>
  <g fill="none" stroke="#ffffff" stroke-linecap="round" stroke-linejoin="round">
    <rect x="47" y="12" width="26" height="14" rx="7" stroke-width="3.5"/>
    <rect x="28" y="18" width="64" height="84" rx="16" stroke-width="3.5"/>
    <path d="M38 44 L38 40 Q38 39 39 39 L46 39 L52 31 Q53 30 54 30 L66 30 Q67 30 68 31 L74 39 L81 39 Q82 39 82 40 L82 44 Z" stroke-width="3.5"/>
    <circle cx="48" cy="45" r="4" stroke-width="2.6"/>
    <circle cx="72" cy="45" r="4" stroke-width="2.6"/>
    <rect x="38" y="56" width="10" height="10" rx="3" stroke-width="2.6"/>
    <polyline points="40,61 42.5,63.5 47,58" stroke-width="2.6"/>
    <line x1="54" y1="61" x2="82" y2="61" stroke-width="2.6"/>
    <rect x="38" y="72" width="10" height="10" rx="3" stroke-width="2.6"/>
    <polyline points="40,77 42.5,79.5 47,74" stroke-width="2.6"/>
    <line x1="54" y1="77" x2="82" y2="77" stroke-width="2.6"/>
    <rect x="38" y="86" width="10" height="10" rx="3" stroke-width="2.6"/>
    <line x1="54" y1="91" x2="82" y2="91" stroke-width="2.6"/>
  </g>
</svg>
